<mxfile host="Electron" modified="2024-05-04T05:31:38.956Z" agent="Mozilla/5.0 (Windows NT 10.0; Win64; x64) AppleWebKit/537.36 (KHTML, like Gecko) draw.io/21.6.8 Chrome/114.0.5735.289 Electron/25.5.0 Safari/537.36" etag="pOChhR9EpQZe30TPHSDJ" version="21.6.8" type="device">
  <diagram name="Page-1" id="c37626ed-c26b-45fb-9056-f9ebc6bb27b6">
    <mxGraphModel dx="3407" dy="1458" grid="1" gridSize="10" guides="1" tooltips="1" connect="1" arrows="1" fold="1" page="1" pageScale="1" pageWidth="1100" pageHeight="850" background="none" math="0" shadow="0">
      <root>
        <mxCell id="0" />
        <mxCell id="1" parent="0" />
        <mxCell id="qpIabbG1XHJWbCOoEQBx-73" value="" style="rounded=0;whiteSpace=wrap;html=1;fontSize=16;fillColor=#e1d5e7;strokeColor=#9673a6;" vertex="1" parent="1">
          <mxGeometry x="-920" y="798" width="360" height="392" as="geometry" />
        </mxCell>
        <mxCell id="qpIabbG1XHJWbCOoEQBx-72" value="" style="rounded=0;whiteSpace=wrap;html=1;fontSize=16;fillColor=#d5e8d4;strokeColor=#82b366;" vertex="1" parent="1">
          <mxGeometry x="-920" y="380" width="360" height="350" as="geometry" />
        </mxCell>
        <mxCell id="qpIabbG1XHJWbCOoEQBx-1" value="" style="rounded=0;whiteSpace=wrap;html=1;fontSize=16;shadow=0;fillColor=#fff2cc;strokeColor=#d6b656;" vertex="1" parent="1">
          <mxGeometry x="-220" y="725" width="880" height="550" as="geometry" />
        </mxCell>
        <mxCell id="qpIabbG1XHJWbCOoEQBx-2" value="" style="rounded=0;whiteSpace=wrap;html=1;fontSize=16;shadow=0;fillColor=#dae8fc;strokeColor=#6c8ebf;" vertex="1" parent="1">
          <mxGeometry x="302" y="45" width="430" height="470" as="geometry" />
        </mxCell>
        <mxCell id="qpIabbG1XHJWbCOoEQBx-3" value="" style="rounded=0;whiteSpace=wrap;html=1;fontSize=16;shadow=0;fillColor=#f8cecc;strokeColor=#b85450;" vertex="1" parent="1">
          <mxGeometry x="-195.5" y="45" width="430" height="470" as="geometry" />
        </mxCell>
        <mxCell id="qpIabbG1XHJWbCOoEQBx-4" value="" style="shape=mxgraph.cisco.switches.layer_2_remote_switch;sketch=0;html=1;pointerEvents=1;dashed=0;fillColor=#036897;strokeColor=#ffffff;strokeWidth=2;verticalLabelPosition=bottom;verticalAlign=top;align=center;outlineConnect=0;fontSize=16;" vertex="1" parent="1">
          <mxGeometry y="265" width="101" height="50" as="geometry" />
        </mxCell>
        <mxCell id="qpIabbG1XHJWbCOoEQBx-5" value="" style="shape=mxgraph.cisco.computers_and_peripherals.pc;sketch=0;html=1;pointerEvents=1;dashed=0;fillColor=#036897;strokeColor=#ffffff;strokeWidth=2;verticalLabelPosition=bottom;verticalAlign=top;align=center;outlineConnect=0;fontSize=16;" vertex="1" parent="1">
          <mxGeometry x="-180" y="255" width="78" height="70" as="geometry" />
        </mxCell>
        <mxCell id="qpIabbG1XHJWbCOoEQBx-6" value="" style="shape=mxgraph.cisco.servers.file_server;sketch=0;html=1;pointerEvents=1;dashed=0;fillColor=#036897;strokeColor=#ffffff;strokeWidth=2;verticalLabelPosition=bottom;verticalAlign=top;align=center;outlineConnect=0;fontSize=16;" vertex="1" parent="1">
          <mxGeometry x="29" y="95" width="43" height="58" as="geometry" />
        </mxCell>
        <mxCell id="qpIabbG1XHJWbCOoEQBx-7" value="" style="endArrow=none;html=1;rounded=0;fontSize=12;startSize=8;endSize=8;curved=1;exitX=0.5;exitY=0;exitDx=0;exitDy=0;exitPerimeter=0;entryX=0.5;entryY=1;entryDx=0;entryDy=0;entryPerimeter=0;" edge="1" parent="1" source="qpIabbG1XHJWbCOoEQBx-4" target="qpIabbG1XHJWbCOoEQBx-6">
          <mxGeometry width="50" height="50" relative="1" as="geometry">
            <mxPoint x="-10" y="-55" as="sourcePoint" />
            <mxPoint x="40" y="-105" as="targetPoint" />
          </mxGeometry>
        </mxCell>
        <mxCell id="qpIabbG1XHJWbCOoEQBx-8" value="" style="endArrow=none;html=1;rounded=0;fontSize=12;startSize=8;endSize=8;curved=1;exitX=0;exitY=0.5;exitDx=0;exitDy=0;exitPerimeter=0;" edge="1" parent="1" source="qpIabbG1XHJWbCOoEQBx-4" target="qpIabbG1XHJWbCOoEQBx-5">
          <mxGeometry width="50" height="50" relative="1" as="geometry">
            <mxPoint x="-10" y="145" as="sourcePoint" />
            <mxPoint x="40" y="95" as="targetPoint" />
          </mxGeometry>
        </mxCell>
        <mxCell id="qpIabbG1XHJWbCOoEQBx-9" value="" style="shape=mxgraph.cisco.switches.layer_2_remote_switch;sketch=0;html=1;pointerEvents=1;dashed=0;fillColor=#036897;strokeColor=#ffffff;strokeWidth=2;verticalLabelPosition=bottom;verticalAlign=top;align=center;outlineConnect=0;fontSize=16;" vertex="1" parent="1">
          <mxGeometry x="340" y="265" width="101" height="50" as="geometry" />
        </mxCell>
        <mxCell id="qpIabbG1XHJWbCOoEQBx-10" value="" style="shape=mxgraph.cisco.computers_and_peripherals.pc;sketch=0;html=1;pointerEvents=1;dashed=0;fillColor=#036897;strokeColor=#ffffff;strokeWidth=2;verticalLabelPosition=bottom;verticalAlign=top;align=center;outlineConnect=0;fontSize=16;" vertex="1" parent="1">
          <mxGeometry x="580" y="255" width="78" height="70" as="geometry" />
        </mxCell>
        <mxCell id="qpIabbG1XHJWbCOoEQBx-11" value="" style="shape=mxgraph.cisco.servers.file_server;sketch=0;html=1;pointerEvents=1;dashed=0;fillColor=#036897;strokeColor=#ffffff;strokeWidth=2;verticalLabelPosition=bottom;verticalAlign=top;align=center;outlineConnect=0;fontSize=16;" vertex="1" parent="1">
          <mxGeometry x="369" y="95" width="43" height="58" as="geometry" />
        </mxCell>
        <mxCell id="qpIabbG1XHJWbCOoEQBx-12" value="" style="endArrow=none;html=1;rounded=0;fontSize=12;startSize=8;endSize=8;curved=1;exitX=0.5;exitY=0;exitDx=0;exitDy=0;exitPerimeter=0;entryX=0.5;entryY=1;entryDx=0;entryDy=0;entryPerimeter=0;" edge="1" parent="1" source="qpIabbG1XHJWbCOoEQBx-9" target="qpIabbG1XHJWbCOoEQBx-11">
          <mxGeometry width="50" height="50" relative="1" as="geometry">
            <mxPoint x="330" y="-55" as="sourcePoint" />
            <mxPoint x="380" y="-105" as="targetPoint" />
          </mxGeometry>
        </mxCell>
        <mxCell id="qpIabbG1XHJWbCOoEQBx-13" value="" style="endArrow=none;html=1;rounded=0;fontSize=12;startSize=8;endSize=8;curved=1;exitX=1;exitY=0.5;exitDx=0;exitDy=0;exitPerimeter=0;" edge="1" parent="1" source="qpIabbG1XHJWbCOoEQBx-9" target="qpIabbG1XHJWbCOoEQBx-10">
          <mxGeometry width="50" height="50" relative="1" as="geometry">
            <mxPoint x="330" y="145" as="sourcePoint" />
            <mxPoint x="380" y="95" as="targetPoint" />
          </mxGeometry>
        </mxCell>
        <mxCell id="qpIabbG1XHJWbCOoEQBx-14" value="" style="shape=mxgraph.cisco.routers.router;sketch=0;html=1;pointerEvents=1;dashed=0;fillColor=#036897;strokeColor=#ffffff;strokeWidth=2;verticalLabelPosition=bottom;verticalAlign=top;align=center;outlineConnect=0;fontSize=16;" vertex="1" parent="1">
          <mxGeometry x="11.5" y="420" width="78" height="53" as="geometry" />
        </mxCell>
        <mxCell id="qpIabbG1XHJWbCOoEQBx-15" value="" style="shape=mxgraph.cisco.routers.router;sketch=0;html=1;pointerEvents=1;dashed=0;fillColor=#036897;strokeColor=#ffffff;strokeWidth=2;verticalLabelPosition=bottom;verticalAlign=top;align=center;outlineConnect=0;fontSize=16;" vertex="1" parent="1">
          <mxGeometry x="351.5" y="420" width="78" height="53" as="geometry" />
        </mxCell>
        <mxCell id="qpIabbG1XHJWbCOoEQBx-16" value="" style="endArrow=none;html=1;rounded=0;fontSize=12;startSize=8;endSize=8;curved=1;exitX=0.5;exitY=1;exitDx=0;exitDy=0;exitPerimeter=0;entryX=0.5;entryY=0;entryDx=0;entryDy=0;entryPerimeter=0;" edge="1" parent="1" source="qpIabbG1XHJWbCOoEQBx-4" target="qpIabbG1XHJWbCOoEQBx-14">
          <mxGeometry width="50" height="50" relative="1" as="geometry">
            <mxPoint x="180" y="345" as="sourcePoint" />
            <mxPoint x="230" y="295" as="targetPoint" />
          </mxGeometry>
        </mxCell>
        <mxCell id="qpIabbG1XHJWbCOoEQBx-17" value="" style="endArrow=none;html=1;rounded=0;fontSize=12;startSize=8;endSize=8;curved=1;exitX=0.5;exitY=1;exitDx=0;exitDy=0;exitPerimeter=0;entryX=0.5;entryY=0;entryDx=0;entryDy=0;entryPerimeter=0;" edge="1" parent="1" source="qpIabbG1XHJWbCOoEQBx-9" target="qpIabbG1XHJWbCOoEQBx-15">
          <mxGeometry width="50" height="50" relative="1" as="geometry">
            <mxPoint x="260" y="315" as="sourcePoint" />
            <mxPoint x="260" y="420" as="targetPoint" />
          </mxGeometry>
        </mxCell>
        <mxCell id="qpIabbG1XHJWbCOoEQBx-18" value="" style="shape=mxgraph.cisco.routers.router;sketch=0;html=1;pointerEvents=1;dashed=0;fillColor=#036897;strokeColor=#ffffff;strokeWidth=2;verticalLabelPosition=bottom;verticalAlign=top;align=center;outlineConnect=0;fontSize=16;" vertex="1" parent="1">
          <mxGeometry x="197.5" y="745" width="78" height="53" as="geometry" />
        </mxCell>
        <mxCell id="qpIabbG1XHJWbCOoEQBx-19" value="" style="endArrow=none;html=1;rounded=0;fontSize=12;startSize=8;endSize=8;curved=1;exitX=0.5;exitY=1;exitDx=0;exitDy=0;exitPerimeter=0;" edge="1" parent="1" source="qpIabbG1XHJWbCOoEQBx-14" target="qpIabbG1XHJWbCOoEQBx-18">
          <mxGeometry width="50" height="50" relative="1" as="geometry">
            <mxPoint x="180" y="585" as="sourcePoint" />
            <mxPoint x="230" y="535" as="targetPoint" />
          </mxGeometry>
        </mxCell>
        <mxCell id="qpIabbG1XHJWbCOoEQBx-20" value="" style="endArrow=none;html=1;rounded=0;fontSize=12;startSize=8;endSize=8;curved=1;entryX=0.5;entryY=1;entryDx=0;entryDy=0;entryPerimeter=0;" edge="1" parent="1" source="qpIabbG1XHJWbCOoEQBx-18" target="qpIabbG1XHJWbCOoEQBx-15">
          <mxGeometry width="50" height="50" relative="1" as="geometry">
            <mxPoint x="180" y="585" as="sourcePoint" />
            <mxPoint x="230" y="535" as="targetPoint" />
          </mxGeometry>
        </mxCell>
        <mxCell id="qpIabbG1XHJWbCOoEQBx-21" value="" style="shape=mxgraph.cisco.switches.layer_2_remote_switch;sketch=0;html=1;pointerEvents=1;dashed=0;fillColor=#036897;strokeColor=#ffffff;strokeWidth=2;verticalLabelPosition=bottom;verticalAlign=top;align=center;outlineConnect=0;fontSize=16;" vertex="1" parent="1">
          <mxGeometry x="186" y="905" width="101" height="50" as="geometry" />
        </mxCell>
        <mxCell id="qpIabbG1XHJWbCOoEQBx-22" value="" style="shape=mxgraph.cisco.switches.layer_2_remote_switch;sketch=0;html=1;pointerEvents=1;dashed=0;fillColor=#036897;strokeColor=#ffffff;strokeWidth=2;verticalLabelPosition=bottom;verticalAlign=top;align=center;outlineConnect=0;fontSize=16;" vertex="1" parent="1">
          <mxGeometry y="1025" width="101" height="50" as="geometry" />
        </mxCell>
        <mxCell id="qpIabbG1XHJWbCOoEQBx-23" value="" style="shape=mxgraph.cisco.switches.layer_2_remote_switch;sketch=0;html=1;pointerEvents=1;dashed=0;fillColor=#036897;strokeColor=#ffffff;strokeWidth=2;verticalLabelPosition=bottom;verticalAlign=top;align=center;outlineConnect=0;fontSize=16;" vertex="1" parent="1">
          <mxGeometry x="380" y="1025" width="101" height="50" as="geometry" />
        </mxCell>
        <mxCell id="qpIabbG1XHJWbCOoEQBx-24" value="" style="shape=mxgraph.cisco.computers_and_peripherals.pc;sketch=0;html=1;pointerEvents=1;dashed=0;fillColor=#036897;strokeColor=#ffffff;strokeWidth=2;verticalLabelPosition=bottom;verticalAlign=top;align=center;outlineConnect=0;fontSize=16;" vertex="1" parent="1">
          <mxGeometry x="-90" y="1165" width="78" height="70" as="geometry" />
        </mxCell>
        <mxCell id="qpIabbG1XHJWbCOoEQBx-25" value="" style="shape=mxgraph.cisco.computers_and_peripherals.pc;sketch=0;html=1;pointerEvents=1;dashed=0;fillColor=#036897;strokeColor=#ffffff;strokeWidth=2;verticalLabelPosition=bottom;verticalAlign=top;align=center;outlineConnect=0;fontSize=16;" vertex="1" parent="1">
          <mxGeometry x="100" y="1165" width="78" height="70" as="geometry" />
        </mxCell>
        <mxCell id="qpIabbG1XHJWbCOoEQBx-26" value="" style="shape=mxgraph.cisco.computers_and_peripherals.pc;sketch=0;html=1;pointerEvents=1;dashed=0;fillColor=#036897;strokeColor=#ffffff;strokeWidth=2;verticalLabelPosition=bottom;verticalAlign=top;align=center;outlineConnect=0;fontSize=16;" vertex="1" parent="1">
          <mxGeometry x="302" y="1165" width="78" height="70" as="geometry" />
        </mxCell>
        <mxCell id="qpIabbG1XHJWbCOoEQBx-27" value="" style="shape=mxgraph.cisco.computers_and_peripherals.pc;sketch=0;html=1;pointerEvents=1;dashed=0;fillColor=#036897;strokeColor=#ffffff;strokeWidth=2;verticalLabelPosition=bottom;verticalAlign=top;align=center;outlineConnect=0;fontSize=16;" vertex="1" parent="1">
          <mxGeometry x="490" y="1165" width="78" height="70" as="geometry" />
        </mxCell>
        <mxCell id="qpIabbG1XHJWbCOoEQBx-28" value="" style="endArrow=none;html=1;rounded=0;fontSize=12;startSize=8;endSize=8;curved=1;entryX=0.5;entryY=1;entryDx=0;entryDy=0;entryPerimeter=0;exitX=0.5;exitY=0;exitDx=0;exitDy=0;exitPerimeter=0;" edge="1" parent="1" source="qpIabbG1XHJWbCOoEQBx-21" target="qpIabbG1XHJWbCOoEQBx-18">
          <mxGeometry width="50" height="50" relative="1" as="geometry">
            <mxPoint x="180" y="995" as="sourcePoint" />
            <mxPoint x="230" y="945" as="targetPoint" />
          </mxGeometry>
        </mxCell>
        <mxCell id="qpIabbG1XHJWbCOoEQBx-29" value="" style="endArrow=none;html=1;rounded=0;fontSize=12;startSize=8;endSize=8;curved=1;exitX=0.5;exitY=0;exitDx=0;exitDy=0;exitPerimeter=0;" edge="1" parent="1" source="qpIabbG1XHJWbCOoEQBx-22" target="qpIabbG1XHJWbCOoEQBx-21">
          <mxGeometry width="50" height="50" relative="1" as="geometry">
            <mxPoint x="180" y="995" as="sourcePoint" />
            <mxPoint x="230" y="945" as="targetPoint" />
          </mxGeometry>
        </mxCell>
        <mxCell id="qpIabbG1XHJWbCOoEQBx-30" value="" style="endArrow=none;html=1;rounded=0;fontSize=12;startSize=8;endSize=8;curved=1;entryX=0.5;entryY=0;entryDx=0;entryDy=0;entryPerimeter=0;exitX=0.709;exitY=0.984;exitDx=0;exitDy=0;exitPerimeter=0;" edge="1" parent="1" source="qpIabbG1XHJWbCOoEQBx-21" target="qpIabbG1XHJWbCOoEQBx-23">
          <mxGeometry width="50" height="50" relative="1" as="geometry">
            <mxPoint x="180" y="995" as="sourcePoint" />
            <mxPoint x="230" y="945" as="targetPoint" />
          </mxGeometry>
        </mxCell>
        <mxCell id="qpIabbG1XHJWbCOoEQBx-31" value="" style="endArrow=none;html=1;rounded=0;fontSize=12;startSize=8;endSize=8;curved=1;entryX=0.5;entryY=0;entryDx=0;entryDy=0;entryPerimeter=0;" edge="1" parent="1" target="qpIabbG1XHJWbCOoEQBx-24">
          <mxGeometry width="50" height="50" relative="1" as="geometry">
            <mxPoint y="1075" as="sourcePoint" />
            <mxPoint x="230" y="945" as="targetPoint" />
          </mxGeometry>
        </mxCell>
        <mxCell id="qpIabbG1XHJWbCOoEQBx-32" value="" style="endArrow=none;html=1;rounded=0;fontSize=12;startSize=8;endSize=8;curved=1;exitX=0.5;exitY=0;exitDx=0;exitDy=0;exitPerimeter=0;" edge="1" parent="1" source="qpIabbG1XHJWbCOoEQBx-25" target="qpIabbG1XHJWbCOoEQBx-22">
          <mxGeometry width="50" height="50" relative="1" as="geometry">
            <mxPoint x="61" y="1085" as="sourcePoint" />
            <mxPoint x="-41" y="1175" as="targetPoint" />
          </mxGeometry>
        </mxCell>
        <mxCell id="qpIabbG1XHJWbCOoEQBx-33" value="" style="endArrow=none;html=1;rounded=0;fontSize=12;startSize=8;endSize=8;curved=1;exitX=0.5;exitY=0;exitDx=0;exitDy=0;exitPerimeter=0;entryX=0;entryY=1;entryDx=0;entryDy=0;entryPerimeter=0;" edge="1" parent="1" source="qpIabbG1XHJWbCOoEQBx-26" target="qpIabbG1XHJWbCOoEQBx-23">
          <mxGeometry width="50" height="50" relative="1" as="geometry">
            <mxPoint x="71" y="1095" as="sourcePoint" />
            <mxPoint x="-31" y="1185" as="targetPoint" />
          </mxGeometry>
        </mxCell>
        <mxCell id="qpIabbG1XHJWbCOoEQBx-34" value="" style="endArrow=none;html=1;rounded=0;fontSize=12;startSize=8;endSize=8;curved=1;exitX=0.5;exitY=0;exitDx=0;exitDy=0;exitPerimeter=0;" edge="1" parent="1" source="qpIabbG1XHJWbCOoEQBx-27" target="qpIabbG1XHJWbCOoEQBx-23">
          <mxGeometry width="50" height="50" relative="1" as="geometry">
            <mxPoint x="81" y="1105" as="sourcePoint" />
            <mxPoint x="-21" y="1195" as="targetPoint" />
          </mxGeometry>
        </mxCell>
        <mxCell id="qpIabbG1XHJWbCOoEQBx-35" value="" style="shape=mxgraph.cisco.security.firewall;sketch=0;html=1;pointerEvents=1;dashed=0;fillColor=#036897;strokeColor=#ffffff;strokeWidth=2;verticalLabelPosition=bottom;verticalAlign=top;align=center;outlineConnect=0;fontSize=16;" vertex="1" parent="1">
          <mxGeometry x="-195.5" y="738" width="29" height="67" as="geometry" />
        </mxCell>
        <mxCell id="qpIabbG1XHJWbCOoEQBx-36" value="" style="endArrow=none;html=1;rounded=0;fontSize=12;startSize=8;endSize=8;curved=1;exitX=0;exitY=0.5;exitDx=0;exitDy=0;exitPerimeter=0;entryX=1;entryY=0.5;entryDx=0;entryDy=0;entryPerimeter=0;" edge="1" parent="1" source="qpIabbG1XHJWbCOoEQBx-18" target="qpIabbG1XHJWbCOoEQBx-35">
          <mxGeometry width="50" height="50" relative="1" as="geometry">
            <mxPoint x="180" y="695" as="sourcePoint" />
            <mxPoint x="230" y="645" as="targetPoint" />
          </mxGeometry>
        </mxCell>
        <mxCell id="qpIabbG1XHJWbCOoEQBx-37" value="" style="endArrow=classic;startArrow=classic;html=1;rounded=0;fontSize=12;startSize=8;endSize=8;curved=1;" edge="1" parent="1">
          <mxGeometry width="50" height="50" relative="1" as="geometry">
            <mxPoint x="138" y="685" as="sourcePoint" />
            <mxPoint x="178" y="735" as="targetPoint" />
          </mxGeometry>
        </mxCell>
        <mxCell id="qpIabbG1XHJWbCOoEQBx-38" value="OSPF" style="edgeLabel;html=1;align=center;verticalAlign=middle;resizable=0;points=[];fontSize=16;" vertex="1" connectable="0" parent="qpIabbG1XHJWbCOoEQBx-37">
          <mxGeometry x="-0.0361" y="1" relative="1" as="geometry">
            <mxPoint as="offset" />
          </mxGeometry>
        </mxCell>
        <mxCell id="qpIabbG1XHJWbCOoEQBx-39" value="" style="endArrow=classic;startArrow=classic;html=1;rounded=0;fontSize=12;startSize=8;endSize=8;curved=1;" edge="1" parent="1">
          <mxGeometry width="50" height="50" relative="1" as="geometry">
            <mxPoint x="340" y="685" as="sourcePoint" />
            <mxPoint x="300" y="735" as="targetPoint" />
          </mxGeometry>
        </mxCell>
        <mxCell id="qpIabbG1XHJWbCOoEQBx-40" value="OSPF" style="edgeLabel;html=1;align=center;verticalAlign=middle;resizable=0;points=[];fontSize=16;" vertex="1" connectable="0" parent="qpIabbG1XHJWbCOoEQBx-39">
          <mxGeometry x="-0.0361" y="1" relative="1" as="geometry">
            <mxPoint as="offset" />
          </mxGeometry>
        </mxCell>
        <mxCell id="qpIabbG1XHJWbCOoEQBx-41" value="" style="endArrow=classic;startArrow=classic;html=1;rounded=0;fontSize=12;startSize=8;endSize=8;curved=1;" edge="1" parent="1">
          <mxGeometry width="50" height="50" relative="1" as="geometry">
            <mxPoint x="40" y="495" as="sourcePoint" />
            <mxPoint x="80" y="555" as="targetPoint" />
          </mxGeometry>
        </mxCell>
        <mxCell id="qpIabbG1XHJWbCOoEQBx-42" value="OSPF" style="edgeLabel;html=1;align=center;verticalAlign=middle;resizable=0;points=[];fontSize=16;" vertex="1" connectable="0" parent="qpIabbG1XHJWbCOoEQBx-41">
          <mxGeometry x="-0.0361" y="1" relative="1" as="geometry">
            <mxPoint as="offset" />
          </mxGeometry>
        </mxCell>
        <mxCell id="qpIabbG1XHJWbCOoEQBx-43" value="" style="endArrow=classic;startArrow=classic;html=1;rounded=0;fontSize=12;startSize=8;endSize=8;curved=1;" edge="1" parent="1">
          <mxGeometry width="50" height="50" relative="1" as="geometry">
            <mxPoint x="400" y="495" as="sourcePoint" />
            <mxPoint x="372" y="555" as="targetPoint" />
          </mxGeometry>
        </mxCell>
        <mxCell id="qpIabbG1XHJWbCOoEQBx-44" value="OSPF" style="edgeLabel;html=1;align=center;verticalAlign=middle;resizable=0;points=[];fontSize=16;" vertex="1" connectable="0" parent="qpIabbG1XHJWbCOoEQBx-43">
          <mxGeometry x="-0.0361" y="1" relative="1" as="geometry">
            <mxPoint as="offset" />
          </mxGeometry>
        </mxCell>
        <mxCell id="qpIabbG1XHJWbCOoEQBx-45" value="VLAN 2" style="text;html=1;strokeColor=none;fillColor=none;align=center;verticalAlign=middle;whiteSpace=wrap;rounded=0;fontSize=16;" vertex="1" parent="1">
          <mxGeometry x="-81" y="1245" width="60" height="30" as="geometry" />
        </mxCell>
        <mxCell id="qpIabbG1XHJWbCOoEQBx-46" value="VLAN 3" style="text;html=1;strokeColor=none;fillColor=none;align=center;verticalAlign=middle;whiteSpace=wrap;rounded=0;fontSize=16;" vertex="1" parent="1">
          <mxGeometry x="109" y="1245" width="60" height="30" as="geometry" />
        </mxCell>
        <mxCell id="qpIabbG1XHJWbCOoEQBx-47" value="VLAN 4" style="text;html=1;strokeColor=none;fillColor=none;align=center;verticalAlign=middle;whiteSpace=wrap;rounded=0;fontSize=16;" vertex="1" parent="1">
          <mxGeometry x="311" y="1245" width="60" height="30" as="geometry" />
        </mxCell>
        <mxCell id="qpIabbG1XHJWbCOoEQBx-48" value="VLAN 5" style="text;html=1;strokeColor=none;fillColor=none;align=center;verticalAlign=middle;whiteSpace=wrap;rounded=0;fontSize=16;" vertex="1" parent="1">
          <mxGeometry x="499" y="1245" width="60" height="30" as="geometry" />
        </mxCell>
        <mxCell id="qpIabbG1XHJWbCOoEQBx-49" value="VLAN 8" style="text;html=1;strokeColor=none;fillColor=none;align=center;verticalAlign=middle;whiteSpace=wrap;rounded=0;fontSize=16;" vertex="1" parent="1">
          <mxGeometry x="20.5" y="45" width="60" height="30" as="geometry" />
        </mxCell>
        <mxCell id="qpIabbG1XHJWbCOoEQBx-50" value="VLAN 7" style="text;html=1;strokeColor=none;fillColor=none;align=center;verticalAlign=middle;whiteSpace=wrap;rounded=0;fontSize=16;" vertex="1" parent="1">
          <mxGeometry x="360.5" y="45" width="60" height="30" as="geometry" />
        </mxCell>
        <mxCell id="qpIabbG1XHJWbCOoEQBx-51" value="VLAN 9" style="text;html=1;strokeColor=none;fillColor=none;align=center;verticalAlign=middle;whiteSpace=wrap;rounded=0;fontSize=16;" vertex="1" parent="1">
          <mxGeometry x="-171" y="205" width="60" height="30" as="geometry" />
        </mxCell>
        <mxCell id="qpIabbG1XHJWbCOoEQBx-52" value="VLAN 6" style="text;html=1;strokeColor=none;fillColor=none;align=center;verticalAlign=middle;whiteSpace=wrap;rounded=0;fontSize=16;" vertex="1" parent="1">
          <mxGeometry x="589" y="215" width="60" height="30" as="geometry" />
        </mxCell>
        <mxCell id="qpIabbG1XHJWbCOoEQBx-53" value="" style="shape=mxgraph.cisco.servers.file_server;sketch=0;html=1;pointerEvents=1;dashed=0;fillColor=#036897;strokeColor=#ffffff;strokeWidth=2;verticalLabelPosition=bottom;verticalAlign=top;align=center;outlineConnect=0;fontSize=16;" vertex="1" parent="1">
          <mxGeometry x="-202.5" y="935" width="43" height="58" as="geometry" />
        </mxCell>
        <mxCell id="qpIabbG1XHJWbCOoEQBx-54" value="" style="endArrow=none;html=1;rounded=0;fontSize=12;startSize=8;endSize=8;curved=1;exitX=0.5;exitY=1;exitDx=0;exitDy=0;exitPerimeter=0;entryX=0.5;entryY=0;entryDx=0;entryDy=0;entryPerimeter=0;" edge="1" parent="1" source="qpIabbG1XHJWbCOoEQBx-35" target="qpIabbG1XHJWbCOoEQBx-53">
          <mxGeometry width="50" height="50" relative="1" as="geometry">
            <mxPoint x="-20" y="945" as="sourcePoint" />
            <mxPoint x="-90" y="625" as="targetPoint" />
          </mxGeometry>
        </mxCell>
        <mxCell id="qpIabbG1XHJWbCOoEQBx-55" value="DMZ" style="text;html=1;strokeColor=none;fillColor=none;align=center;verticalAlign=middle;whiteSpace=wrap;rounded=0;fontSize=16;" vertex="1" parent="1">
          <mxGeometry x="-216.5" y="1005" width="71" height="30" as="geometry" />
        </mxCell>
        <mxCell id="qpIabbG1XHJWbCOoEQBx-56" value="&lt;font style=&quot;font-size: 32px;&quot;&gt;MAIN SITE&lt;/font&gt;" style="text;html=1;strokeColor=none;fillColor=none;align=center;verticalAlign=middle;whiteSpace=wrap;rounded=0;fontSize=16;strokeWidth=0;" vertex="1" parent="1">
          <mxGeometry x="450" y="756.5" width="170" height="30" as="geometry" />
        </mxCell>
        <mxCell id="qpIabbG1XHJWbCOoEQBx-57" value="&lt;span style=&quot;font-size: 32px;&quot;&gt;AUXILIARY SITES&lt;/span&gt;" style="text;html=1;strokeColor=none;fillColor=none;align=center;verticalAlign=middle;whiteSpace=wrap;rounded=0;fontSize=16;strokeWidth=0;" vertex="1" parent="1">
          <mxGeometry x="-189" y="95" width="189" height="30" as="geometry" />
        </mxCell>
        <mxCell id="qpIabbG1XHJWbCOoEQBx-58" value="&lt;span style=&quot;font-size: 32px;&quot;&gt;AUXILIARY SITES&lt;/span&gt;" style="text;html=1;strokeColor=none;fillColor=none;align=center;verticalAlign=middle;whiteSpace=wrap;rounded=0;fontSize=16;strokeWidth=0;" vertex="1" parent="1">
          <mxGeometry x="543" y="95" width="189" height="30" as="geometry" />
        </mxCell>
        <mxCell id="qpIabbG1XHJWbCOoEQBx-59" value="&lt;font style=&quot;font-size: 32px;&quot;&gt;INTERNET&lt;/font&gt;" style="shape=mxgraph.cisco.routers.router;sketch=0;html=1;pointerEvents=1;dashed=0;fillColor=#036897;strokeColor=#ffffff;strokeWidth=2;verticalLabelPosition=bottom;verticalAlign=top;align=center;outlineConnect=0;fontSize=16;" vertex="1" parent="1">
          <mxGeometry x="-500" y="745" width="78" height="53" as="geometry" />
        </mxCell>
        <mxCell id="qpIabbG1XHJWbCOoEQBx-60" value="" style="endArrow=none;html=1;rounded=0;fontSize=12;startSize=8;endSize=8;curved=1;exitX=0;exitY=0.5;exitDx=0;exitDy=0;exitPerimeter=0;entryX=1;entryY=0.5;entryDx=0;entryDy=0;entryPerimeter=0;" edge="1" parent="1" source="qpIabbG1XHJWbCOoEQBx-35" target="qpIabbG1XHJWbCOoEQBx-59">
          <mxGeometry width="50" height="50" relative="1" as="geometry">
            <mxPoint x="-210" y="655" as="sourcePoint" />
            <mxPoint x="-160" y="605" as="targetPoint" />
          </mxGeometry>
        </mxCell>
        <mxCell id="qpIabbG1XHJWbCOoEQBx-61" value="" style="endArrow=none;html=1;rounded=0;fontSize=12;startSize=8;endSize=8;curved=1;exitX=0.5;exitY=0;exitDx=0;exitDy=0;exitPerimeter=0;entryX=1;entryY=0.5;entryDx=0;entryDy=0;entryPerimeter=0;" edge="1" parent="1" source="qpIabbG1XHJWbCOoEQBx-59" target="qpIabbG1XHJWbCOoEQBx-62">
          <mxGeometry width="50" height="50" relative="1" as="geometry">
            <mxPoint x="80" y="650" as="sourcePoint" />
            <mxPoint x="-461" y="460" as="targetPoint" />
          </mxGeometry>
        </mxCell>
        <mxCell id="qpIabbG1XHJWbCOoEQBx-62" value="&lt;font style=&quot;font-size: 25px;&quot;&gt;CUSTOMER NETWORK&lt;/font&gt;" style="shape=mxgraph.cisco.switches.layer_2_remote_switch;sketch=0;html=1;pointerEvents=1;dashed=0;fillColor=#036897;strokeColor=#ffffff;strokeWidth=2;verticalLabelPosition=bottom;verticalAlign=top;align=center;outlineConnect=0;fontSize=16;" vertex="1" parent="1">
          <mxGeometry x="-800" y="593" width="101" height="50" as="geometry" />
        </mxCell>
        <mxCell id="qpIabbG1XHJWbCOoEQBx-63" value="" style="shape=mxgraph.cisco.computers_and_peripherals.pc;sketch=0;html=1;pointerEvents=1;dashed=0;fillColor=#036897;strokeColor=#ffffff;strokeWidth=2;verticalLabelPosition=bottom;verticalAlign=top;align=center;outlineConnect=0;fontSize=16;" vertex="1" parent="1">
          <mxGeometry x="-788.5" y="420" width="78" height="70" as="geometry" />
        </mxCell>
        <mxCell id="qpIabbG1XHJWbCOoEQBx-64" value="" style="endArrow=none;html=1;rounded=0;fontSize=12;startSize=8;endSize=8;curved=1;exitX=0.5;exitY=1;exitDx=0;exitDy=0;exitPerimeter=0;entryX=0.5;entryY=0;entryDx=0;entryDy=0;entryPerimeter=0;" edge="1" parent="1" source="qpIabbG1XHJWbCOoEQBx-63" target="qpIabbG1XHJWbCOoEQBx-62">
          <mxGeometry width="50" height="50" relative="1" as="geometry">
            <mxPoint x="-806.5" y="325" as="sourcePoint" />
            <mxPoint x="-908.5" y="325" as="targetPoint" />
          </mxGeometry>
        </mxCell>
        <mxCell id="qpIabbG1XHJWbCOoEQBx-65" value="&lt;font style=&quot;font-size: 25px;&quot;&gt;CONTENT PROVIDER&lt;/font&gt;" style="shape=mxgraph.cisco.switches.layer_2_remote_switch;sketch=0;html=1;pointerEvents=1;dashed=0;fillColor=#036897;strokeColor=#ffffff;strokeWidth=2;verticalLabelPosition=bottom;verticalAlign=top;align=center;outlineConnect=0;fontSize=16;" vertex="1" parent="1">
          <mxGeometry x="-800" y="870" width="101" height="50" as="geometry" />
        </mxCell>
        <mxCell id="qpIabbG1XHJWbCOoEQBx-69" value="" style="shape=mxgraph.cisco.servers.file_server;sketch=0;html=1;pointerEvents=1;dashed=0;fillColor=#036897;strokeColor=#ffffff;strokeWidth=2;verticalLabelPosition=bottom;verticalAlign=top;align=center;outlineConnect=0;fontSize=16;" vertex="1" parent="1">
          <mxGeometry x="-771" y="1060" width="43" height="58" as="geometry" />
        </mxCell>
        <mxCell id="qpIabbG1XHJWbCOoEQBx-70" value="" style="endArrow=none;html=1;rounded=0;fontSize=12;startSize=8;endSize=8;curved=1;exitX=0.5;exitY=1;exitDx=0;exitDy=0;exitPerimeter=0;entryX=0.5;entryY=0;entryDx=0;entryDy=0;entryPerimeter=0;" edge="1" parent="1" source="qpIabbG1XHJWbCOoEQBx-65" target="qpIabbG1XHJWbCOoEQBx-69">
          <mxGeometry width="50" height="50" relative="1" as="geometry">
            <mxPoint x="-70" y="910" as="sourcePoint" />
            <mxPoint x="-20" y="860" as="targetPoint" />
          </mxGeometry>
        </mxCell>
        <mxCell id="qpIabbG1XHJWbCOoEQBx-71" value="" style="endArrow=none;html=1;rounded=0;fontSize=12;startSize=8;endSize=8;curved=1;entryX=0.5;entryY=1;entryDx=0;entryDy=0;entryPerimeter=0;exitX=1;exitY=0.5;exitDx=0;exitDy=0;exitPerimeter=0;" edge="1" parent="1" source="qpIabbG1XHJWbCOoEQBx-65" target="qpIabbG1XHJWbCOoEQBx-59">
          <mxGeometry width="50" height="50" relative="1" as="geometry">
            <mxPoint x="-70" y="910" as="sourcePoint" />
            <mxPoint x="-20" y="860" as="targetPoint" />
          </mxGeometry>
        </mxCell>
      </root>
    </mxGraphModel>
  </diagram>
</mxfile>
